Coordinates
version=1
nRows=12
nColumns=24
inDegrees=yes

Units are S.I. units (second, meters, Newtons, ...)
Angles are in degrees.

endheader
time	pelvis_tilt	pelvis_list	pelvis_rotation	pelvis_tx	pelvis_ty	pelvis_tz	hip_flexion_r	hip_adduction_r	hip_rotation_r	knee_angle_r	ankle_angle_r	subtalar_angle_r	mtp_angle_r	hip_flexion_l	hip_adduction_l	hip_rotation_l	knee_angle_l	ankle_angle_l	subtalar_angle_l	mtp_angle_l	lumbar_extension	lumbar_bending	lumbar_rotation
      0.77083333	     -2.22076284	      1.59984235	      5.42896683	     -0.33922844	      1.07974606	      0.30321360	      9.13305640	      0.91045875	     -2.19366441	    -15.22330713	      9.76489560	     -6.56473149	      1.74899861	     16.86433374	     -1.55001306	     -2.02220326	    -67.20245719	     10.69639238	      2.38482741	     -0.80625015	     -7.98307817	      3.53141358	     -1.19062696
      0.77500000	     -2.16268039	      1.71789974	      5.33442198	     -0.33394482	      1.08052251	      0.30367416	      8.59509379	      0.84675817	     -2.14299342	    -14.88261878	      9.87857896	     -6.46085237	      1.70965838	     17.27187299	     -1.44031133	     -2.20872021	    -66.76955878	     11.00498070	      2.66472539	     -0.79700094	     -8.01714597	      3.33128443	     -0.99430585
      0.77916667	     -2.14695776	      1.85428451	      5.23620982	     -0.32867062	      1.08118943	      0.30411482	      8.11232494	      0.75475239	     -2.09694499	    -14.56245572	      9.93851039	     -6.37061313	      1.68766772	     17.71389636	     -1.29914902	     -2.39674651	    -66.29432884	     11.30800850	      2.87444038	     -0.78714235	     -8.00512682	      3.10635743	     -0.90165627
      0.78333333	     -2.10547029	      1.97227705	      5.12810544	     -0.32341473	      1.08184268	      0.30457480	      7.60040095	      0.68697010	     -2.03592926	    -14.23098964	     10.02528420	     -6.28172780	      1.66326795	     18.12201825	     -1.19201717	     -2.59986061	    -65.78465093	     11.60561186	      3.15392549	     -0.77471783	     -8.02438106	      2.90080936	     -0.76069443
      0.78750000	     -2.05872042	      2.08808409	      5.01815737	     -0.31815916	      1.08247730	      0.30503131	      7.08055307	      0.62127763	     -1.97138183	    -13.89269798	     10.10458877	     -6.20466341	      1.63718510	     18.51380384	     -1.09003156	     -2.80829253	    -65.23222679	     11.87527482	      3.42458062	     -0.76106967	     -8.04618174	      2.70196840	     -0.60400325
      0.79166667	     -2.01930751	      2.20916340	      4.90398782	     -0.31290629	      1.08306530	      0.30548114	      6.57003166	      0.54718368	     -1.90307434	    -13.55740315	     10.18525459	     -6.13274034	      1.61009760	     18.90116932	     -0.98190958	     -3.02226210	    -64.63685838	     12.12383962	      3.69363913	     -0.74617958	     -8.05969588	      2.49865127	     -0.44369728
      0.79583333	     -1.99331634	      2.33248966	      4.78822435	     -0.30767225	      1.08359033	      0.30592710	      6.07529845	      0.46743058	     -1.83153467	    -13.21973021	     10.26204493	     -6.05495184	      1.58844703	     19.29563595	     -0.86869230	     -3.23463254	    -64.00694276	     12.35027378	      3.93838957	     -0.73245831	     -8.06896480	      2.28203265	     -0.31279383
      0.80000000	     -1.92422574	      2.43574212	      4.66432071	     -0.30245046	      1.08413401	      0.30636858	      5.53205093	      0.41325026	     -1.74501821	    -12.87297045	     10.35764689	     -6.00149418	      1.53805570	     19.63363991	     -0.78795372	     -3.45408480	    -63.34204929	     12.57408594	      4.23322129	     -0.70702045	     -8.12224117	      2.10749366	     -0.03821023
      0.80416667	     -1.91163245	      2.55569028	      4.54022536	     -0.29722246	      1.08454045	      0.30679666	      5.06386708	      0.33074603	     -1.67856130	    -12.55964128	     10.43487570	     -5.93594593	      1.50911011	     20.02005756	     -0.68003905	     -3.67432677	    -62.63593400	     12.76472884	      4.48466856	     -0.68955423	     -8.09870010	      1.91117756	      0.06928816
      0.80833333	     -1.86200265	      2.65553255	      4.42002449	     -0.29202496	      1.08496109	      0.30721702	      4.54481286	      0.27355369	     -1.59185178	    -12.21471925	     10.52383835	     -5.87335073	      1.46277668	     20.36366175	     -0.59964557	     -3.88676139	    -61.90651388	     12.95166689	      4.75593045	     -0.66302692	     -8.14205353	      1.72188353	      0.27272911
      0.81250000	     -1.82489116	      2.77059535	      4.29461903	     -0.28683157	      1.08532799	      0.30763173	      4.04889330	      0.19487480	     -1.51607113	    -11.89243811	     10.61362526	     -5.80758359	      1.41882394	     20.70405604	     -0.49867892	     -4.10141653	    -61.13059150	     13.10740111	      4.99706560	     -0.63765069	     -8.16213250	      1.52668425	      0.42821160
      0.81666667	     -1.78877680	      2.87339852	      4.17296888	     -0.28164711	      1.08564079	      0.30802401	      3.55532774	      0.12692052	     -1.44484246	    -11.56944087	     10.70389634	     -5.74165407	      1.37790756	     21.03880365	     -0.40946802	     -4.30780290	    -60.32784542	     13.24994846	      5.23406811	     -0.61330266	     -8.18087024	      1.34435577	      0.57207312
